<svg width="416" height="60" viewBox="0 0 416 60" fill="none" xmlns="http://www.w3.org/2000/svg">
<path d="M58.3385 59.9481H41.4493L17.1687 35.8587H0.175986L0.175981 23.9647H22.3085L58.3385 59.9481Z" fill="black"/>
<path d="M27.6812 11.972H1.90735e-06L0 0H32.9089L45.6988 12.5744V29.865L27.6812 11.972Z" fill="black"/>
<path d="M0.175986 59.9481L0.175984 48.1423H11.6149L23.0694 60L0.175986 59.9481Z" fill="black"/>
<path d="M117.97 53.44H107.89L94.87 34.82H79.47V53.44H71V5.84H99.42C109.92 5.84 115.66 10.95 115.66 20.33C115.66 28.03 111.74 32.86 104.53 34.33L117.97 53.44ZM79.47 13.12V27.54H98.23C104.18 27.54 107.05 25.16 107.05 20.33C107.05 15.5 104.18 13.12 98.23 13.12H79.47Z" fill="black"/>
<path d="M165.833 13.12H132.093V25.79H161.283V33.07H132.093V46.16H165.833V53.44H123.623V5.84H165.833V13.12Z" fill="black"/>
<path d="M192.373 54.28C183.133 54.28 175.083 51.9 168.853 47.42L172.493 40.7C178.093 44.69 184.953 46.86 192.303 46.86C201.123 46.86 205.813 44.48 205.813 39.79C205.813 35.87 202.383 34.33 191.813 33.56C176.553 32.37 170.953 28.66 170.953 19.63C170.953 10.46 178.723 5 191.883 5C199.723 5 206.373 6.96 211.763 10.74L208.403 17.32C203.783 14.03 198.113 12.42 191.813 12.42C184.183 12.42 179.563 14.94 179.563 19.28C179.563 23.2 182.923 24.74 193.493 25.51C208.823 26.7 214.423 30.41 214.423 39.44C214.423 49.1 206.653 54.28 192.373 54.28Z" fill="black"/>
<path d="M262.876 13.12H229.136V25.79H258.326V33.07H229.136V46.16H262.876V53.44H220.666V5.84H262.876V13.12Z" fill="black"/>
<path d="M316.226 53.44H306.146L293.126 34.82H277.726V53.44H269.256V5.84H297.676C308.176 5.84 313.916 10.95 313.916 20.33C313.916 28.03 309.996 32.86 302.786 34.33L316.226 53.44ZM277.726 13.12V27.54H296.486C302.436 27.54 305.306 25.16 305.306 20.33C305.306 15.5 302.436 13.12 296.486 13.12H277.726Z" fill="black"/>
<path d="M358.854 5.84H367.674L346.814 53.44H338.134L317.274 5.84H326.514L342.684 43.78L358.854 5.84Z" fill="black"/>
<path d="M415.14 13.12H381.4V25.79H410.59V33.07H381.4V46.16H415.14V53.44H372.93V5.84H415.14V13.12Z" fill="black"/>
</svg>
